<svg width="123" height="50" viewBox="0 0 123 50" fill="none" xmlns="http://www.w3.org/2000/svg">
<path d="M15.4402 1.62338C13.3 1.77098 11.086 2.50898 9.13028 3.71438C7.81418 4.52618 5.79698 6.48188 4.92368 7.79798C2.04548 12.103 1.73798 17.146 4.05038 21.7462C5.09588 23.8249 16.129 43.96 16.2766 44.0584C16.3504 44.1199 16.5964 44.1445 16.7932 44.1322C17.1499 44.0953 17.3836 43.7017 23.3245 32.7916C26.707 26.5801 29.6344 21.0943 29.8189 20.6146C30.5815 18.6712 30.7906 17.5765 30.7906 15.4363C30.7906 13.6774 30.7537 13.3453 30.4585 12.2383C29.7697 9.69218 28.306 7.24448 26.3749 5.41178C23.4106 2.59508 19.7452 1.32818 15.4402 1.62338ZM18.7735 12.5458C19.7698 13.0624 20.5078 13.8865 20.9137 14.9689C21.295 15.9898 21.2335 17.5027 20.7415 18.4867C20.311 19.3846 19.4992 20.1841 18.6013 20.6146C17.9863 20.9221 17.7526 20.959 16.7317 20.9713C15.6985 20.9713 15.4771 20.9344 14.8129 20.6269C12.8449 19.7167 11.7871 17.515 12.3037 15.3871C12.4882 14.5999 13.2262 13.456 13.8412 12.9886C14.7514 12.2875 15.5509 12.0415 16.8055 12.0784C17.8141 12.1153 18.0109 12.1645 18.7735 12.5458Z" fill="#262626"/>
<path d="M38.4383 4.63712C38.1677 4.66172 37.6511 4.73552 37.3067 4.80932L36.6548 4.93232V12.1893C36.6548 19.2741 36.6548 19.434 36.9008 19.68C37.1222 19.9014 37.3067 19.926 38.9918 19.926H40.8368V12.5091C40.8368 8.43782 40.7876 5.04302 40.7384 4.95692C40.517 4.60022 39.8405 4.51412 38.4383 4.63712Z" fill="#262626"/>
<path d="M67.5689 5.04278C66.4865 5.20268 66.548 5.09198 66.548 6.82628V8.36378H65.687H64.8383L64.7522 8.81888C64.703 9.07718 64.6538 9.69218 64.6538 10.1842C64.6415 11.2912 64.7768 11.4388 65.8223 11.4388H66.5234L66.5726 14.3785L66.6095 17.3059L67.04 18.1546C67.5443 19.1263 68.1962 19.7044 69.1556 19.9873C70.73 20.4547 72.7718 19.9996 73.5836 19.0156C73.8542 18.6835 73.8665 18.1054 73.6082 17.4658C73.4114 16.9615 73.3991 16.9615 72.9194 17.0353C71.5664 17.269 70.8284 17.0845 70.607 16.4449C70.5455 16.2358 70.484 15.055 70.484 13.7635V11.4388H72.1445H73.805V10.1719C73.805 8.36378 73.805 8.36378 71.9477 8.36378H70.484V6.90008C70.484 5.46098 70.4717 5.42408 70.1642 5.17808C69.8075 4.89518 68.885 4.85828 67.5689 5.04278Z" fill="#262626"/>
<path d="M48.8944 8.27774C48.181 8.51144 47.5906 8.84354 47.2216 9.18794L46.8895 9.48314L46.8157 9.05264C46.6804 8.32694 46.336 8.19164 44.86 8.27774C44.1712 8.32694 43.4455 8.40074 43.2364 8.46224L42.8674 8.56064L42.8305 13.9603C42.8059 18.6343 42.8305 19.3846 42.9904 19.6429C43.1749 19.9135 43.2241 19.9258 45.0199 19.9258H46.8649V15.8053V11.6848L47.3569 11.4388C48.0703 11.0821 48.9559 11.1067 49.3495 11.5003C49.78 11.9308 49.8169 12.2137 49.8169 15.1165C49.8169 18.1177 49.903 18.5359 50.7394 19.2985C51.379 19.8889 52.0678 20.098 53.1133 20.0119C54.5155 19.9012 55.3273 19.0894 55.192 17.9332C55.0936 17.1706 55.0444 17.0968 54.6016 17.0968C54.4048 17.0968 54.1342 16.9861 53.9989 16.8508C53.7652 16.6171 53.7529 16.4449 53.7529 14.2309C53.7529 11.6479 53.6053 10.6639 53.0764 9.76604C52.7197 9.16334 52.1785 8.67134 51.5512 8.41304C50.9362 8.15474 49.4971 8.08094 48.8944 8.27774Z" fill="#262626"/>
<path d="M58.4633 8.24083C56.483 8.65903 55.3145 9.97513 55.3145 11.7463C55.3268 12.8779 55.6712 13.702 56.4584 14.44C57.1841 15.1165 57.7499 15.4117 59.1152 15.8053C60.3698 16.1743 60.5174 16.2727 60.5174 16.7401C60.5174 17.2567 60.173 17.392 58.9307 17.3059C58.0205 17.2567 57.3317 17.0845 56.2985 16.6663C56.1386 16.5925 56.0402 16.6909 55.8434 17.1091C55.5113 17.8594 55.5359 18.3514 55.9172 18.8188C56.9627 20.0611 60.1607 20.5654 62.1779 19.8028C63.1988 19.4092 64.109 18.499 64.3796 17.6011C64.6256 16.7647 64.6256 16.3342 64.3796 15.5101C64.0352 14.317 62.9405 13.5052 60.8495 12.9025C59.7425 12.5827 59.2874 12.2383 59.2874 11.6971C59.2874 10.6762 60.8864 10.7008 61.4399 11.734C61.6613 12.1522 61.6982 12.1645 62.1779 12.103C62.9651 11.98 63.986 11.5249 64.2443 11.1682C64.847 10.3564 63.617 8.96653 61.8089 8.41303C61.0586 8.19163 59.1767 8.09323 58.4633 8.24083Z" fill="#262626"/>
<path d="M78.0456 8.31489C77.0001 8.54859 75.807 9.08979 75.4011 9.53259C75.1797 9.76629 75.1059 9.98769 75.1059 10.3321C75.1182 10.8241 75.3642 11.5621 75.5118 11.5621C75.5487 11.5621 75.8931 11.4391 76.2621 11.3038C76.7295 11.1193 77.3199 11.0209 78.1686 10.9717C80.0013 10.8856 80.5671 11.2054 80.7639 12.4108L80.85 12.9397L80.1858 12.8413C79.005 12.6445 77.3814 12.7306 76.6188 13.0258C75.0936 13.6039 74.2449 14.8216 74.2449 16.4206C74.2449 17.4784 74.577 18.2779 75.3027 19.0282C76.0899 19.84 76.8279 20.1106 78.2301 20.1106C79.3002 20.1106 79.4601 20.0737 80.0628 19.7416C80.4318 19.5448 80.8377 19.225 80.973 19.0282L81.2313 18.6961L81.7233 19.1758C82.0062 19.4464 82.4367 19.7539 82.6827 19.8646C83.2731 20.0983 84.3801 20.0983 84.9705 19.8646C85.9422 19.4587 86.2989 18.8314 86.1636 17.7736C86.0898 17.0971 86.0775 17.0971 85.6593 17.0971C85.401 17.0971 85.1427 16.9987 84.9951 16.8511C84.7614 16.6174 84.7491 16.4452 84.7491 14.2189C84.7491 12.214 84.7122 11.7097 84.5154 11.0701C84.0849 9.69249 83.2239 8.83149 81.8586 8.41329C80.9484 8.13039 79.0788 8.08119 78.0456 8.31489ZM80.5425 14.9569C80.7762 15.0307 80.8131 15.1168 80.8131 15.6703C80.8131 16.7773 79.989 17.6014 79.0788 17.4046C78.0825 17.1832 77.9226 15.5719 78.8574 15.0553C79.1649 14.8831 80.0628 14.8339 80.5425 14.9569Z" fill="#262626"/>
<path d="M88.6374 9.00333C88.4652 9.23703 88.4406 9.96273 88.4406 14.3538C88.4406 18.7941 88.4652 19.446 88.6374 19.6059C88.8096 19.7781 90.4455 19.8027 104.861 19.8027C119.277 19.8027 120.913 19.7781 121.085 19.6059C121.257 19.446 121.282 18.7818 121.282 14.28C121.282 9.45844 121.269 9.12634 121.06 8.94183C120.851 8.74504 119.547 8.73273 104.824 8.73273H88.8219L88.6374 9.00333ZM93.828 12.0783L93.8649 12.8901L94.197 12.7179C94.9227 12.3366 95.919 12.6933 96.3126 13.4682C96.5709 14.0094 96.5463 15.0918 96.2388 15.6822C95.7714 16.6047 94.3323 17.0106 93.3606 16.5063C93.09 16.3587 92.8194 16.0758 92.6595 15.7437C92.4012 15.2394 92.3766 15.0303 92.3766 13.1853V11.1804L93.09 11.2173L93.7911 11.2542L93.828 12.0783ZM104.529 13.9848L104.554 16.6047H103.816H103.078V14.034C103.078 11.4633 103.078 11.451 103.36 11.4018C103.508 11.3649 103.828 11.3526 104.062 11.3649L104.492 11.3772L104.529 13.9848ZM108.157 11.6478C108.367 11.7831 108.625 12.0291 108.736 12.2013C108.895 12.4965 108.895 12.558 108.699 12.7671C108.576 12.9024 108.28 13.05 108.047 13.0869C107.69 13.1607 107.579 13.1238 107.333 12.8286C107.075 12.5457 106.989 12.5088 106.804 12.6195C106.349 12.9024 106.546 13.1853 107.444 13.542C108.526 13.9848 108.859 14.3415 108.859 15.0795C108.859 15.387 108.772 15.7929 108.674 15.9897C108.133 17.0229 105.316 16.9245 105.193 15.8544C105.144 15.3255 105.292 15.2394 106.042 15.3993C106.78 15.5469 107.383 15.4608 107.383 15.2025C107.383 15.1041 107.026 14.895 106.534 14.7105C105.587 14.3415 105.181 13.9848 105.058 13.3821C104.873 12.5211 105.316 11.6724 106.079 11.4387C106.62 11.2788 107.69 11.3772 108.157 11.6478ZM117.382 11.6478C117.592 11.7831 117.85 12.0291 117.961 12.2013C118.12 12.4965 118.12 12.558 117.924 12.7671C117.801 12.9024 117.505 13.05 117.272 13.0869C116.915 13.1607 116.804 13.1238 116.558 12.8286C116.3 12.5457 116.214 12.5088 116.029 12.6195C115.574 12.9024 115.771 13.1853 116.669 13.542C117.751 13.9848 118.084 14.3415 118.084 15.0795C118.084 15.387 117.997 15.7929 117.899 15.9897C117.358 17.0229 114.541 16.9245 114.418 15.8544C114.369 15.3255 114.517 15.2394 115.267 15.3993C116.005 15.5469 116.608 15.4608 116.608 15.2025C116.608 15.1041 116.251 14.895 115.759 14.7105C114.812 14.3415 114.406 13.9848 114.283 13.3821C114.098 12.5211 114.541 11.6724 115.304 11.4387C115.845 11.2788 116.915 11.3772 117.382 11.6478ZM112.893 11.8446C113.594 12.312 113.938 13.0131 113.938 14.0217C113.951 15.756 113.028 16.6047 111.134 16.6047C110.298 16.6047 110.187 16.5801 109.818 16.248L109.412 15.8913L109.375 13.6527L109.338 11.4141L110.863 11.4633C112.278 11.5002 112.413 11.5248 112.893 11.8446ZM98.2806 14.0094C98.2806 15.5223 98.3913 15.7806 98.9571 15.5223C99.2523 15.387 99.2646 15.3501 99.2646 14.0217V12.6687H99.9411H100.618V14.9319C100.618 17.0721 100.605 17.2074 100.335 17.601C99.9165 18.2406 99.363 18.4743 98.379 18.4251C97.7148 18.3882 97.4934 18.3267 97.2351 18.0807C96.8661 17.7363 96.8169 17.0844 97.149 16.7523C97.3581 16.5555 97.3581 16.5309 97.1244 16.1988C96.903 15.9036 96.8661 15.6207 96.8169 14.4399C96.7923 13.665 96.8046 12.9516 96.8538 12.8532C96.903 12.7179 97.1121 12.6687 97.6041 12.6687H98.2806V14.0094Z" fill="#262626"/>
<path d="M94.0782 13.7883C93.906 13.8867 93.8568 14.0712 93.8568 14.5755C93.8568 15.5103 94.2996 15.9039 94.767 15.3873C95.0868 15.0429 95.1606 14.3295 94.9146 13.9605C94.7055 13.6407 94.4226 13.5792 94.0782 13.7883Z" fill="#262626"/>
<path d="M110.83 13.8744C110.83 15.1782 110.917 15.375 111.458 15.375C111.987 15.375 112.319 15.0183 112.393 14.3664C112.516 13.2471 112.159 12.669 111.322 12.669H110.83V13.8744Z" fill="#262626"/>
<path d="M98.7599 16.6419C98.2925 16.9617 98.2187 17.2692 98.6 17.3184C98.8952 17.3553 99.0797 17.1708 99.1904 16.6911C99.2888 16.2852 99.2888 16.2852 98.7599 16.6419Z" fill="#262626"/>
<path d="M69.6202 20.8114C68.9191 21.1681 68.5993 21.7339 68.6731 22.4965C68.7469 23.173 69.0667 23.6035 69.7432 23.9479C70.4074 24.2923 71.2192 24.3046 71.9203 23.9971C72.9289 23.5297 73.2118 22.1029 72.4615 21.2296C71.8834 20.5531 70.5304 20.3563 69.6202 20.8114Z" fill="#262626"/>
<path d="M62.3025 21.119C62.1672 21.1436 61.9335 21.1928 61.7736 21.2297L61.4907 21.2912L61.5276 27.7733L61.5645 34.2554L61.8843 34.9319C62.2533 35.7191 62.7945 36.3095 63.5202 36.6908C63.9384 36.9122 64.2213 36.9614 65.2545 36.9614C66.3369 36.9614 66.5706 36.9245 67.1856 36.6293C68.3541 36.0881 68.5632 35.4731 68.0466 34.157C67.9113 33.8126 67.8129 33.7019 67.6653 33.7634C67.5546 33.8126 67.1856 33.8741 66.8412 33.911C66.3 33.9725 66.177 33.9356 65.8572 33.665L65.5005 33.3575L65.439 27.3674C65.3775 21.6233 65.3652 21.3773 65.1438 21.2051C64.9716 21.0821 64.5657 21.0329 63.7293 21.0452C63.0774 21.0575 62.4378 21.0821 62.3025 21.119Z" fill="#262626"/>
<path d="M43.7949 23.6283V26.1006L43.4259 25.7808C42.9831 25.4118 41.9868 25.092 41.2734 25.092C39.0102 25.092 36.993 26.7771 36.2427 29.274C35.9721 30.1596 35.8614 31.9923 36.0213 32.841C36.3657 34.6614 37.3374 36.0636 38.7273 36.7401C39.3423 37.0353 39.576 37.0722 40.5969 37.0845C41.6301 37.0845 41.8392 37.0476 42.3804 36.7524C42.7248 36.5802 43.2537 36.162 43.5489 35.8422C43.9179 35.4363 44.1024 35.3133 44.1393 35.4363C44.2623 35.8176 45.3447 36.7524 45.8244 36.8877C47.0175 37.2198 48.2352 36.9369 48.8748 36.1743C49.1331 35.8668 49.2069 35.6454 49.2069 35.2026C49.2069 34.2678 49.1085 34.071 48.6657 34.071C48.4566 34.071 48.2229 34.0218 48.1368 33.9726C47.7678 33.7389 47.7309 33.1116 47.7309 27.3183C47.7309 22.9149 47.694 21.4143 47.5833 21.3036C47.4849 21.2052 46.8699 21.156 45.6153 21.156H43.7949V23.6283ZM43.3767 28.3638L43.7949 28.5606V30.6147C43.7949 32.5827 43.7826 32.6811 43.4874 33.1116C42.8724 34.0095 41.7408 34.3539 40.8552 33.8988C39.5637 33.2223 39.6006 29.9874 40.929 28.7697C41.1135 28.5852 41.3841 28.3884 41.5194 28.3146C41.8884 28.1055 42.897 28.1424 43.3767 28.3638Z" fill="#262626"/>
<path d="M53.9124 25.2764C50.1732 26.0882 48.279 30.221 49.9518 33.9233C50.37 34.8581 51.4524 35.9897 52.3749 36.4571C54.1584 37.355 56.5323 37.3673 58.2912 36.4694C59.3736 35.9282 59.6196 35.3378 59.2137 34.3046C59.0415 33.8864 58.9677 33.8126 58.7463 33.8864C57.7131 34.2185 57.1473 34.3169 56.3355 34.3169C54.8841 34.3169 53.9247 33.7634 53.5188 32.681L53.3958 32.3612L56.2494 32.3243C59.5458 32.2751 59.6319 32.2505 60.1239 31.3157C60.4068 30.7622 60.4437 30.5408 60.4437 29.5199C60.456 28.1423 60.2223 27.5273 59.3982 26.6294C58.2051 25.3379 56.0649 24.809 53.9124 25.2764ZM56.3355 28.2653C56.7414 28.6712 56.9013 29.3108 56.7168 29.8028L56.5815 30.1349H54.9702H53.3466L53.4204 29.7044C53.5926 28.6712 54.429 27.9332 55.4499 27.9209C55.8804 27.9209 56.0526 27.9947 56.3355 28.2653Z" fill="#262626"/>
<path d="M90.4455 25.2764C86.7063 26.0882 84.8121 30.221 86.4849 33.9233C86.9031 34.8581 87.9855 35.9897 88.908 36.4571C90.6915 37.355 93.0654 37.3673 94.8243 36.4694C95.9067 35.9282 96.1527 35.3378 95.7468 34.3046C95.5746 33.8864 95.5008 33.8126 95.2794 33.8864C94.2462 34.2185 93.6804 34.3169 92.8686 34.3169C91.4172 34.3169 90.4578 33.7634 90.0519 32.681L89.9289 32.3612L92.7825 32.3243C96.0789 32.2751 96.165 32.2505 96.657 31.3157C96.9399 30.7622 96.9768 30.5408 96.9768 29.5199C96.9891 28.1423 96.7554 27.5273 95.9313 26.6294C94.7382 25.3379 92.598 24.809 90.4455 25.2764ZM92.8686 28.2653C93.2745 28.6712 93.4344 29.3108 93.2499 29.8028L93.1146 30.1349H91.5033H89.8797L89.9535 29.7044C90.1257 28.6712 90.9621 27.9332 91.983 27.9209C92.4135 27.9209 92.5857 27.9947 92.8686 28.2653Z" fill="#262626"/>
<path d="M103.971 25.3256C103.331 25.547 102.901 25.8422 102.397 26.4326L102.138 26.7278L102.064 26.1866C101.941 25.301 101.683 25.1657 100.133 25.2518C99.4199 25.301 98.6819 25.3748 98.4728 25.4363L98.1038 25.5347L98.0669 30.9344C98.0423 35.6084 98.0669 36.3587 98.2268 36.617C98.4113 36.8876 98.4605 36.8999 100.256 36.8999H102.101V33.3821V29.8643L102.421 29.2739C102.962 28.2653 104.143 27.884 105.262 28.3514C105.693 28.5359 105.705 28.5359 106.246 28.0931C107.169 27.3305 107.563 26.1374 107.034 25.6577C106.726 25.3748 105.754 25.0919 105.127 25.0919C104.844 25.1042 104.328 25.2026 103.971 25.3256Z" fill="#262626"/>
<path d="M69.693 25.3378C69.3732 25.3993 69.0165 25.4731 68.9181 25.51C68.7705 25.5715 68.7459 26.248 68.7828 30.2209C68.8197 35.4607 68.8443 35.5468 69.7545 36.334C70.923 37.3303 72.9279 37.2442 73.8381 36.1741C74.0964 35.8666 74.1702 35.6452 74.1702 35.2024C74.1702 34.2676 74.0718 34.0708 73.629 34.0708C72.8541 34.0708 72.8787 34.2184 72.8172 29.7535L72.7557 25.6822L72.4605 25.4485C72.2268 25.264 71.9931 25.2148 71.2305 25.2271C70.7139 25.2394 70.0251 25.2886 69.693 25.3378Z" fill="#262626"/>
<path d="M75.431 25.4607C74.6069 25.7559 73.9304 26.1741 73.9304 26.3832C73.9304 26.4693 74.7791 28.8555 75.8246 31.6845L77.7065 36.8382L79.4162 36.8628C80.6093 36.8874 81.2243 36.8505 81.4334 36.7398C82.1591 36.3708 84.1025 31.7829 85.1972 27.81C85.7138 25.9281 85.7261 25.6206 85.2956 25.4607C85.1234 25.3869 84.2501 25.3377 83.3522 25.3377H81.7163L81.6302 25.9773C81.4334 27.4656 80.2157 32.2626 79.9697 32.5086C79.9205 32.5578 79.4039 31.0449 78.8381 29.1507C78.2723 27.2442 77.7065 25.5837 77.5835 25.4484C77.2883 25.1409 76.3166 25.1409 75.431 25.4607Z" fill="#262626"/>
<path d="M109.047 25.3994C108.985 25.424 108.666 25.4732 108.346 25.5224L107.755 25.5962V29.4584C107.755 31.8446 107.805 33.5666 107.891 33.9725C108.088 34.8827 108.506 35.6699 109.084 36.1865L109.564 36.617L109.01 37.0352C107.928 37.847 107.608 39.1016 108.174 40.2701C108.813 41.5739 110.203 42.2135 112.429 42.2135C115.504 42.2258 117.46 41.0573 118.37 38.6342C118.629 37.97 118.641 37.7117 118.678 31.8938C118.715 25.9283 118.715 25.8422 118.469 25.5962C118.235 25.3625 118.063 25.3379 116.427 25.3379H114.643L114.619 29.483L114.582 33.6158L114.127 33.8495C113.573 34.1447 112.651 34.1693 112.245 33.8987C111.765 33.5789 111.691 33.0008 111.691 29.2985C111.691 25.1165 111.778 25.3379 110.191 25.3502C109.625 25.3502 109.121 25.3748 109.047 25.3994ZM114.373 38.2283C114.028 38.9048 113.61 39.2369 112.971 39.323C112.319 39.4091 111.814 39.0278 111.814 38.4497C111.814 37.8101 112.27 37.2566 113.167 36.8261C113.61 36.617 114.102 36.2849 114.274 36.1004L114.582 35.7683L114.619 36.7154C114.643 37.5149 114.607 37.7609 114.373 38.2283Z" fill="#262626"/>
<path d="M7.87216 35.4732C5.92876 36.9984 4.53886 39.0525 3.88696 41.328C3.66556 42.0906 3.44416 43.7757 3.53026 43.9971C3.61636 44.2062 13.5917 44.2308 13.7147 44.0217C13.8377 43.8372 8.95456 34.932 8.73316 34.932C8.63476 34.932 8.24116 35.178 7.87216 35.4732Z" fill="#262626"/>
<path d="M22.4812 39.4212C21.1405 41.8935 20.0704 43.9599 20.1196 44.0337C20.218 44.1936 30.2179 44.2059 30.3163 44.046C30.4516 43.8246 30.1195 41.8443 29.7628 40.7742C29.2462 39.2244 28.5205 38.0067 27.4012 36.8136C26.3926 35.7681 25.3717 34.9317 25.0888 34.9317C24.9904 34.9317 23.8342 36.9366 22.4812 39.4212Z" fill="#262626"/>
<path d="M53.7069 40.7987C53.5593 40.9463 53.6331 41.2046 53.8176 41.2046C53.916 41.2046 54.0021 41.1308 54.0021 41.0324C54.0021 40.8233 53.8299 40.688 53.7069 40.7987Z" fill="#262626"/>
<path d="M86.2229 41.451C86.2229 42.1029 86.1737 42.1644 85.8047 41.8815C85.1774 41.4141 84.2795 41.8938 84.1811 42.7425C84.0458 43.8126 85.0544 44.5137 85.8662 43.9233C86.2229 43.665 86.2229 43.665 86.2229 43.911C86.2229 44.0463 86.309 44.157 86.4074 44.157C86.5673 44.157 86.5919 43.8864 86.5919 42.4965C86.5919 41.1066 86.5673 40.836 86.4074 40.836C86.2721 40.836 86.2229 40.9836 86.2229 41.451ZM85.9646 42.2628C86.3213 42.7179 86.2967 43.2345 85.9031 43.6281C85.6571 43.8741 85.5218 43.9233 85.202 43.8618C84.6977 43.7634 84.5009 43.4928 84.5009 42.9024C84.5009 42.0045 85.4357 41.5986 85.9646 42.2628Z" fill="#262626"/>
<path d="M37.261 41.0818C36.4615 41.3032 36.0433 41.8444 36.0433 42.6439C36.0433 43.4926 36.9904 44.2552 37.8391 44.1076C38.4787 43.9846 39.2044 43.2958 38.6878 43.2958C38.5894 43.2958 38.5033 43.345 38.5033 43.4188C38.5033 43.6525 37.753 43.9354 37.3225 43.8616C36.7321 43.7509 36.4123 43.2712 36.4123 42.5332C36.4123 42.0535 36.4738 41.869 36.7198 41.6353C37.1134 41.2294 37.9867 41.2048 38.3188 41.5738C38.5771 41.869 38.8969 41.9059 38.7985 41.6353C38.6509 41.2663 37.7653 40.9465 37.261 41.0818Z" fill="#262626"/>
<path d="M70.3596 41.3894C70.3596 41.5862 70.2858 41.6969 70.1751 41.6969C70.0767 41.6969 69.9906 41.7461 69.9906 41.8199C69.9906 41.8814 70.0767 41.9429 70.1751 41.9429C70.3227 41.9429 70.3596 42.1274 70.3596 42.8531C70.3596 43.6649 70.3965 43.8002 70.6302 43.9601C70.9254 44.1692 71.3436 44.2184 71.3436 44.0462C71.3436 43.9847 71.2083 43.8986 71.0361 43.8617C70.7409 43.7879 70.7286 43.7387 70.7286 42.8654C70.7286 41.9675 70.7409 41.9429 71.0361 41.9429C71.2083 41.9429 71.3436 41.8814 71.3436 41.8199C71.3436 41.7461 71.2083 41.6969 71.0361 41.6969C70.7901 41.6969 70.7286 41.6354 70.7286 41.3894C70.7286 41.1926 70.6548 41.0819 70.5441 41.0819C70.4334 41.0819 70.3596 41.1926 70.3596 41.3894Z" fill="#262626"/>
<path d="M98.5238 41.3894C98.5238 41.5862 98.45 41.6969 98.3393 41.6969C98.2409 41.6969 98.1548 41.7461 98.1548 41.8199C98.1548 41.8814 98.2409 41.9429 98.3393 41.9429C98.4869 41.9429 98.5238 42.1274 98.5238 42.8531C98.5238 43.6649 98.5607 43.8002 98.7944 43.9601C99.0896 44.1692 99.5078 44.2184 99.5078 44.0462C99.5078 43.9847 99.3725 43.8986 99.2003 43.8617C98.9051 43.7879 98.8928 43.7387 98.8928 42.8654C98.8928 41.9675 98.9051 41.9429 99.2003 41.9429C99.3725 41.9429 99.5078 41.8814 99.5078 41.8199C99.5078 41.7461 99.3725 41.6969 99.2003 41.6969C98.9543 41.6969 98.8928 41.6354 98.8928 41.3894C98.8928 41.1926 98.819 41.0819 98.7083 41.0819C98.5976 41.0819 98.5238 41.1926 98.5238 41.3894Z" fill="#262626"/>
<path d="M40.107 41.8567C39.2583 42.2872 39.3321 43.6648 40.23 44.0338C41.4477 44.5381 42.4563 42.9145 41.4723 42.0412C41.0541 41.6722 40.599 41.6107 40.107 41.8567ZM41.3247 42.2626C41.6691 42.7054 41.6568 43.2343 41.2755 43.6033C40.6728 44.2183 39.861 43.837 39.861 42.9268C39.861 42.0043 40.7958 41.5861 41.3247 42.2626Z" fill="#262626"/>
<path d="M42.4379 42.927C42.4379 43.9356 42.4748 44.157 42.6224 44.157C42.77 44.157 42.8069 43.9725 42.8069 43.2591C42.8069 42.2505 42.9914 41.943 43.5695 41.943C44.0984 41.943 44.2829 42.2874 44.2829 43.2714C44.2829 43.7757 44.3321 44.157 44.4059 44.157C44.4797 44.157 44.5289 43.7511 44.5289 43.173C44.5289 42.3243 44.492 42.1644 44.2583 41.943C43.9385 41.6478 43.4588 41.6232 43.0775 41.8938C42.8315 42.066 42.8069 42.066 42.8069 41.8938C42.8069 41.7831 42.7208 41.697 42.6224 41.697C42.4748 41.697 42.4379 41.9184 42.4379 42.927Z" fill="#262626"/>
<path d="M45.3981 42.3364C45.5457 42.6931 45.7548 43.2343 45.8655 43.5418C46.1976 44.4274 46.3821 44.329 46.911 42.9883C47.1693 42.3364 47.3415 41.7706 47.3046 41.7337C47.1693 41.5984 47.034 41.8444 46.6896 42.8284C46.4928 43.3573 46.3083 43.7632 46.2591 43.7386C46.2222 43.714 46.0131 43.2343 45.8163 42.6931C45.6195 42.1396 45.3858 41.6968 45.2997 41.6968C45.189 41.6968 45.2136 41.869 45.3981 42.3364Z" fill="#262626"/>
<path d="M48.1853 41.943C47.2382 42.681 47.9639 44.3415 49.1201 44.1078C49.5014 44.034 49.9442 43.7142 49.9442 43.5174C49.9442 43.3452 49.7105 43.4067 49.4522 43.665C49.3169 43.8003 49.0832 43.911 48.9233 43.911C48.542 43.911 48.0992 43.5789 48.0992 43.2837C48.0992 43.0746 48.1853 43.05 49.0955 43.05H50.1041L50.018 42.6441C49.8581 41.7954 48.8495 41.4141 48.1853 41.943ZM49.4276 42.1398C49.5752 42.2382 49.6982 42.435 49.6982 42.5703C49.6982 42.7794 49.6121 42.804 48.8987 42.804C48.2345 42.804 48.0992 42.7671 48.0992 42.5949C48.0992 42.0291 48.8864 41.7585 49.4276 42.1398Z" fill="#262626"/>
<path d="M50.6758 42.927C50.6758 43.9356 50.7127 44.157 50.8603 44.157C51.0079 44.157 51.0448 43.9725 51.0448 43.2591C51.0448 42.2505 51.2293 41.943 51.8074 41.943C52.3363 41.943 52.5208 42.2874 52.5208 43.2714C52.5208 43.7757 52.57 44.157 52.6438 44.157C52.7176 44.157 52.7668 43.7511 52.7668 43.173C52.7668 42.3243 52.7299 42.1644 52.4962 41.943C52.1764 41.6478 51.6967 41.6232 51.3154 41.8938C51.0694 42.066 51.0448 42.066 51.0448 41.8938C51.0448 41.7831 50.9587 41.697 50.8603 41.697C50.7127 41.697 50.6758 41.9184 50.6758 42.927Z" fill="#262626"/>
<path d="M53.6284 42.927C53.6284 43.9356 53.6653 44.157 53.8129 44.157C53.9605 44.157 53.9974 43.9356 53.9974 42.927C53.9974 41.9184 53.9605 41.697 53.8129 41.697C53.6653 41.697 53.6284 41.9184 53.6284 42.927Z" fill="#262626"/>
<path d="M55.0691 41.943C54.122 42.681 54.8477 44.3415 56.0039 44.1078C56.3852 44.034 56.828 43.7142 56.828 43.5174C56.828 43.3452 56.5943 43.4067 56.336 43.665C56.2007 43.8003 55.967 43.911 55.8071 43.911C55.4258 43.911 54.983 43.5789 54.983 43.2837C54.983 43.0746 55.0691 43.05 55.9793 43.05H56.9879L56.9018 42.6441C56.7419 41.7954 55.7333 41.4141 55.0691 41.943ZM56.3114 42.1398C56.459 42.2382 56.582 42.435 56.582 42.5703C56.582 42.7794 56.4959 42.804 55.7825 42.804C55.1183 42.804 54.983 42.7671 54.983 42.5949C54.983 42.0291 55.7702 41.7585 56.3114 42.1398Z" fill="#262626"/>
<path d="M57.5684 42.927C57.5684 43.9356 57.6053 44.157 57.7529 44.157C57.9005 44.157 57.9374 43.9725 57.9374 43.2591C57.9374 42.2505 58.1219 41.943 58.7 41.943C59.2289 41.943 59.4134 42.2874 59.4134 43.2714C59.4134 43.7757 59.4626 44.157 59.5364 44.157C59.6102 44.157 59.6594 43.7511 59.6594 43.173C59.6594 42.3243 59.6225 42.1644 59.3888 41.943C59.069 41.6478 58.5893 41.6232 58.208 41.8938C57.962 42.066 57.9374 42.066 57.9374 41.8938C57.9374 41.7831 57.8513 41.697 57.7529 41.697C57.6053 41.697 57.5684 41.9184 57.5684 42.927Z" fill="#262626"/>
<path d="M60.682 41.9921C60.3868 42.2504 60.3376 42.3857 60.3376 42.9023C60.3376 43.628 60.5959 43.997 61.1986 44.1077C61.6414 44.1815 62.2933 43.9232 62.404 43.6034C62.5147 43.3451 62.2933 43.3697 61.9981 43.6649C61.42 44.243 60.6451 43.7879 60.6451 42.89C60.6451 42.0044 61.42 41.6108 62.0104 42.2012C62.1457 42.3365 62.3179 42.4349 62.404 42.398C62.4901 42.3734 62.4163 42.2258 62.2195 42.029C61.789 41.5985 61.1617 41.5862 60.682 41.9921Z" fill="#262626"/>
<path d="M63.438 41.943C62.4909 42.681 63.2166 44.3415 64.3728 44.1078C64.7541 44.034 65.1969 43.7142 65.1969 43.5174C65.1969 43.3452 64.9632 43.4067 64.7049 43.665C64.5696 43.8003 64.3359 43.911 64.176 43.911C63.7947 43.911 63.3519 43.5789 63.3519 43.2837C63.3519 43.0746 63.438 43.05 64.3482 43.05H65.3568L65.2707 42.6441C65.1108 41.7954 64.1022 41.4141 63.438 41.943ZM64.6803 42.1398C64.8279 42.2382 64.9509 42.435 64.9509 42.5703C64.9509 42.7794 64.8648 42.804 64.1514 42.804C63.4872 42.804 63.3519 42.7671 63.3519 42.5949C63.3519 42.0291 64.1391 41.7585 64.6803 42.1398Z" fill="#262626"/>
<path d="M67.4676 41.9799C66.7419 42.6072 67.0494 43.9356 67.9596 44.1078C68.3163 44.1693 68.4885 44.1324 68.7714 43.9233C69.1281 43.665 69.1281 43.665 69.1281 43.911C69.1281 44.0463 69.2142 44.157 69.3126 44.157C69.4602 44.157 69.4971 43.9356 69.4971 42.927C69.4971 41.9184 69.4602 41.697 69.3126 41.697C69.2019 41.697 69.1281 41.8077 69.1281 41.9553V42.2013L68.8083 41.9553C68.3778 41.6232 67.8735 41.6232 67.4676 41.9799ZM68.8698 42.2628C69.2265 42.7179 69.2019 43.2345 68.8083 43.6281C68.5623 43.8741 68.427 43.9233 68.1072 43.8618C67.6029 43.7634 67.4061 43.4928 67.4061 42.9024C67.4061 42.0045 68.3409 41.5986 68.8698 42.2628Z" fill="#262626"/>
<path d="M73.0568 42.275C73.1921 42.6071 73.4135 43.1483 73.5611 43.4927C73.8071 44.0831 73.8194 44.1446 73.6349 44.5874C73.4135 45.1163 73.3889 45.2639 73.5488 45.2639C73.6349 45.2639 75.0371 42.0044 75.0371 41.783C75.0371 41.7338 74.9879 41.6969 74.9264 41.6969C74.8649 41.6969 74.6435 42.1274 74.4467 42.644C74.2499 43.1729 74.0408 43.6034 73.9916 43.6034C73.9424 43.6034 73.7333 43.1729 73.5242 42.644C73.3274 42.1274 73.0814 41.6969 72.9953 41.6969C72.86 41.6969 72.8846 41.8322 73.0568 42.275Z" fill="#262626"/>
<path d="M76.1422 41.8567C75.2935 42.2872 75.3673 43.6648 76.2652 44.0338C77.4829 44.5381 78.4915 42.9145 77.5075 42.0412C77.0893 41.6722 76.6342 41.6107 76.1422 41.8567ZM77.3599 42.2626C77.7043 42.7054 77.692 43.2343 77.3107 43.6033C76.708 44.2183 75.8962 43.837 75.8962 42.9268C75.8962 42.0043 76.831 41.5861 77.3599 42.2626Z" fill="#262626"/>
<path d="M78.4818 42.6195C78.4818 43.4436 78.5187 43.5912 78.7893 43.8495C79.1214 44.1939 79.5519 44.2431 79.9086 43.9725C80.2161 43.7388 80.3268 43.7388 80.3268 43.9725C80.3268 44.0709 80.3883 44.157 80.4498 44.157C80.5236 44.157 80.5728 43.665 80.5728 42.927C80.5728 41.4879 80.376 41.2665 80.3022 42.6318C80.253 43.6404 80.0808 43.911 79.515 43.911C79.0107 43.911 78.8508 43.6035 78.8508 42.6072C78.8508 41.8815 78.8139 41.697 78.6663 41.697C78.5187 41.697 78.4818 41.8815 78.4818 42.6195Z" fill="#262626"/>
<path d="M81.4258 42.927C81.4258 43.9356 81.4627 44.157 81.6103 44.157C81.7579 44.157 81.7948 43.9725 81.7948 43.2591C81.7948 42.3366 81.9055 42.066 82.3114 42.066C82.4344 42.066 82.5328 41.9799 82.5328 41.8815C82.5328 41.6478 82.4098 41.6478 82.0654 41.8938C81.8194 42.066 81.7948 42.066 81.7948 41.8938C81.7948 41.7831 81.7087 41.697 81.6103 41.697C81.4627 41.697 81.4258 41.9184 81.4258 42.927Z" fill="#262626"/>
<path d="M87.8307 41.8567C86.982 42.2872 87.0558 43.6648 87.9537 44.0338C89.1714 44.5381 90.18 42.9145 89.196 42.0412C88.7778 41.6722 88.3227 41.6107 87.8307 41.8567ZM89.0484 42.2626C89.3928 42.7054 89.3805 43.2343 88.9992 43.6033C88.3965 44.2183 87.5847 43.837 87.5847 42.9268C87.5847 42.0043 88.5195 41.5861 89.0484 42.2626Z" fill="#262626"/>
<path d="M90.7745 41.8567C89.9258 42.2872 89.9996 43.6648 90.8975 44.0338C92.1152 44.5381 93.1238 42.9145 92.1398 42.0412C91.7216 41.6722 91.2665 41.6107 90.7745 41.8567ZM91.9922 42.2626C92.3366 42.7054 92.3243 43.2343 91.943 43.6033C91.3403 44.2183 90.5285 43.837 90.5285 42.9268C90.5285 42.0043 91.4633 41.5861 91.9922 42.2626Z" fill="#262626"/>
<path d="M93.1143 42.927C93.1143 43.9356 93.1512 44.157 93.2988 44.157C93.4464 44.157 93.4833 43.9725 93.4833 43.2591C93.4833 42.3366 93.594 42.066 93.9999 42.066C94.1229 42.066 94.2213 41.9799 94.2213 41.8815C94.2213 41.6478 94.0983 41.6478 93.7539 41.8938C93.5079 42.066 93.4833 42.066 93.4833 41.8938C93.4833 41.7831 93.3972 41.697 93.2988 41.697C93.1512 41.697 93.1143 41.9184 93.1143 42.927Z" fill="#262626"/>
<path d="M96.3384 41.8938C95.748 42.2997 96.0924 42.8655 97.0887 43.0992C97.3347 43.1607 97.4208 43.2468 97.4208 43.4682C97.4208 43.9602 96.6951 44.0832 96.3876 43.6527C96.2892 43.5051 96.1416 43.419 96.0555 43.4436C95.7603 43.542 96.5106 44.157 96.9288 44.157C97.3101 44.157 97.7898 43.788 97.7898 43.5051C97.7898 43.2468 97.4085 42.9639 96.8673 42.7794C96.5598 42.681 96.363 42.5334 96.3384 42.3858C96.2523 41.9553 96.9165 41.7831 97.3224 42.1521C97.6299 42.4227 97.7652 42.2505 97.4823 41.943C97.2117 41.6478 96.7197 41.6232 96.3384 41.8938Z" fill="#262626"/>
<path d="M100.338 41.943C99.3909 42.681 100.117 44.3415 101.273 44.1078C101.654 44.034 102.097 43.7142 102.097 43.5174C102.097 43.3452 101.863 43.4067 101.605 43.665C101.47 43.8003 101.236 43.911 101.076 43.911C100.695 43.911 100.252 43.5789 100.252 43.2837C100.252 43.0746 100.338 43.05 101.248 43.05H102.257L102.171 42.6441C102.011 41.7954 101.002 41.4141 100.338 41.943ZM101.58 42.1398C101.728 42.2382 101.851 42.435 101.851 42.5703C101.851 42.7794 101.765 42.804 101.051 42.804C100.387 42.804 100.252 42.7671 100.252 42.5949C100.252 42.0291 101.039 41.7585 101.58 42.1398Z" fill="#262626"/>
<path d="M102.828 43.4804C102.828 44.981 102.853 45.2639 103.013 45.2639C103.161 45.2639 103.197 45.0917 103.197 44.4521V43.6526L103.517 43.8986C103.899 44.2061 104.194 44.2184 104.661 43.9847C105.252 43.6772 105.436 42.9638 105.104 42.3119C104.772 41.6723 104.071 41.5001 103.554 41.9429C103.394 42.0659 103.32 42.1766 103.407 42.1889C103.48 42.1889 103.591 42.1274 103.628 42.0659C103.763 41.8568 104.415 41.9306 104.673 42.1889C105.055 42.5702 105.006 43.3328 104.6 43.6526C104.181 43.9847 103.935 43.9724 103.517 43.6526C103.222 43.4189 103.185 43.3082 103.197 42.8162C103.247 41.906 103.21 41.6969 103.013 41.6969C102.853 41.6969 102.828 41.9798 102.828 43.4804Z" fill="#262626"/>
</svg>
